<svg width="27" height="49" viewBox="0 0 27 49" fill="none" xmlns="http://www.w3.org/2000/svg">
<path d="M20.5919 27.0398L6.40946 27.0325L3.64055 47.0786C3.50025 48.0942 4.28824 49 5.3121 49H21.6881C22.7119 49 23.4999 48.0942 23.3596 47.0786L20.5919 27.0398Z" fill="#FF7236"/>
<path d="M5.97016 30.2122C8.21706 31.4149 10.7791 32.1017 13.5001 32.1017C16.221 32.1017 18.7831 31.4149 21.03 30.2122L20.5918 27.0396L6.40941 27.0322L5.97016 30.2122Z" fill="#FFAA50"/>
<path d="M19.4062 5.90983L24.9546 0.353785C25.7093 -0.401982 26.9999 0.133285 26.9999 1.20219V16.0487C26.9999 11.2331 23.192 8.30441 19.4062 5.90983Z" fill="#FF7236"/>
<path d="M27 16.0488C27 23.5149 20.9558 29.5673 13.5001 29.5673C6.04434 29.5673 0.000181198 23.5148 0.000181198 16.0488C0.000181198 8.58283 6.04424 3.37524 13.5001 3.37524C20.9559 3.37524 27 8.58274 27 16.0488Z" fill="#FFAA50"/>
<path d="M7.59376 16.0487C7.59376 9.54204 11.3247 4.75373 16.2931 3.6298C15.3915 3.46413 14.458 3.37513 13.5 3.37513C11.0157 3.37513 8.69599 3.96418 6.69653 5.01137L2.04533 0.353785C1.2906 -0.401982 0 0.133285 0 1.20219V16.0487C0 15.744 0 15.7456 0 16.0487C0 23.5148 6.04416 29.5671 13.4999 29.5671C14.458 29.5671 15.3915 29.4639 16.293 29.2739C11.3247 27.9851 7.59376 22.5553 7.59376 16.0487Z" fill="#FF7236"/>
<path d="M10.5468 24.4979C12.1778 24.4979 13.4999 23.363 13.4999 21.9632C13.4999 20.5633 12.1778 19.4285 10.5468 19.4285C8.91589 19.4285 7.59375 20.5633 7.59375 21.9632C7.59375 23.363 8.91589 24.4979 10.5468 24.4979Z" fill="#FFFDFB"/>
<path d="M16.4533 24.4976C18.0843 24.4976 19.4064 23.3628 19.4064 21.9629C19.4064 20.563 18.0843 19.4282 16.4533 19.4282C14.8224 19.4282 13.5003 20.563 13.5003 21.9629C13.5003 23.3628 14.8224 24.4976 16.4533 24.4976Z" fill="#FFFDFB"/>
<path d="M13.5002 21.9636C14.4322 21.9636 15.1877 21.2071 15.1877 20.2738C15.1877 19.3405 14.4322 18.584 13.5002 18.584C12.5682 18.584 11.8127 19.3405 11.8127 20.2738C11.8127 21.2071 12.5682 21.9636 13.5002 21.9636Z" fill="#FF913C"/>
<path d="M19.4031 39.6358C19.3652 39.1712 18.9722 38.8259 18.4926 38.8639C18.0278 38.9027 17.6835 39.3112 17.7222 39.7761L17.882 41.6965C18.0956 44.2635 16.0726 46.4652 13.5001 46.4652C10.9277 46.4652 8.90463 44.2635 9.11824 41.6965L9.27803 39.7761C9.31674 39.3112 8.9723 38.9027 8.50763 38.8639C8.02977 38.8264 7.63582 39.1712 7.59711 39.6358L6.81801 48.9998H20.1824L19.4031 39.6358Z" fill="#FFAA50"/>
<path d="M8.43767 16.8935C7.97128 16.8935 7.59396 16.5152 7.59396 16.0486V15.2038C7.59396 14.7372 7.97138 14.3589 8.43767 14.3589C8.90397 14.3589 9.28138 14.7372 9.28138 15.2038V16.0486C9.28138 16.5152 8.90397 16.8935 8.43767 16.8935Z" fill="#1A212F"/>
<path d="M18.5625 16.8935C18.0961 16.8935 17.7188 16.5152 17.7188 16.0486V15.2038C17.7188 14.7372 18.0962 14.3589 18.5625 14.3589C19.0289 14.3589 19.4062 14.7372 19.4062 15.2038V16.0486C19.4063 16.5152 19.0289 16.8935 18.5625 16.8935Z" fill="#1A212F"/>
</svg>
